<?xml version="1.0" standalone="no"?>
<!DOCTYPE svg PUBLIC "-//W3C//DTD SVG 20010904//EN"
 "http://www.w3.org/TR/2001/REC-SVG-20010904/DTD/svg10.dtd">
<svg version="1.0" xmlns="http://www.w3.org/2000/svg"
 width="260.000000pt" height="260.000000pt" viewBox="0 0 260.000000 260.000000"
 preserveAspectRatio="xMidYMid meet">

<g transform="translate(0.000000,260.000000) scale(0.100000,-0.100000)"
fill="#000000" stroke="none">
<path d="M0 1555 l0 -475 865 0 865 0 0 475 0 475 -865 0 -865 0 0 -475z"/>
<path d="M1823 1683 c-10 -4 -13 -99 -13 -428 0 -479 -9 -435 89 -435 57 0 59
1 84 39 15 22 48 53 74 68 40 23 59 28 118 28 59 0 78 -5 118 -28 26 -15 59
-46 74 -68 l26 -39 91 0 c58 0 96 4 104 12 9 9 12 71 12 217 l0 204 -126 204
c-69 112 -135 210 -147 218 -18 12 -63 15 -257 14 -129 0 -241 -3 -247 -6z
m450 -71 c28 -24 169 -271 163 -287 -5 -13 -40 -15 -263 -13 l-258 3 -3 145
c-2 121 0 147 13 156 23 17 327 13 348 -4z m292 -682 c0 -46 -3 -55 -19 -58
-24 -5 -36 14 -36 59 0 38 16 61 40 57 11 -3 15 -17 15 -58z"/>
<path d="M163 1005 c-33 -14 -63 -59 -63 -95 0 -12 7 -34 15 -50 17 -32 57
-60 62 -43 9 26 57 80 94 104 105 72 259 36 324 -75 l27 -46 551 2 552 3 0
105 0 105 -765 2 c-634 2 -770 0 -797 -12z"/>
<path d="M314 906 c-17 -8 -45 -31 -62 -51 -124 -151 67 -361 229 -252 79 53
103 150 56 232 -42 73 -143 106 -223 71z m127 -51 c34 -18 69 -69 69 -103 0
-71 -54 -122 -131 -122 -33 0 -47 6 -75 34 -28 28 -34 42 -34 75 0 55 21 94
62 114 42 21 71 21 109 2z"/>
<path d="M2095 906 c-40 -17 -82 -67 -96 -115 -23 -78 14 -160 91 -199 151
-78 311 94 227 243 -41 73 -143 106 -222 71z m126 -51 c34 -18 69 -69 69 -103
0 -71 -54 -122 -131 -122 -33 0 -47 6 -75 34 -96 96 17 253 137 191z"/>
</g>
</svg>
